<svg xmlns="http://www.w3.org/2000/svg" xmlns:xlink="http://www.w3.org/1999/xlink" width="400" zoomAndPan="magnify" viewBox="0 0 300 38.999999" height="52" preserveAspectRatio="xMidYMid meet" version="1.0"><defs><g/></defs><g fill="#d9d9d9" fill-opacity="1"><g transform="translate(68.730468, 30.128563)"><g><path d="M 0.90625 4.46875 C 0.53125 4.46875 0.257812 4.226562 0.09375 3.75 C 0.0625 3.613281 0.0351562 3.5 0.015625 3.40625 C 0.00390625 3.3125 0.015625 3.203125 0.046875 3.078125 C 0.046875 2.785156 0.03125 2.59375 0 2.5 C 0.1875 0.03125 0.5625 -2.515625 1.125 -5.140625 C 1.6875 -7.765625 2.367188 -10.367188 3.171875 -12.953125 C 3.972656 -15.546875 4.859375 -18.09375 5.828125 -20.59375 C 6.804688 -23.09375 7.789062 -25.441406 8.78125 -27.640625 C 8.875 -27.804688 8.96875 -27.96875 9.0625 -28.125 C 9.164062 -28.289062 9.265625 -28.453125 9.359375 -28.609375 C 9.421875 -28.671875 9.5 -28.703125 9.59375 -28.703125 C 9.976562 -28.703125 10.171875 -28.539062 10.171875 -28.21875 C 10.171875 -28 10.125 -27.757812 10.03125 -27.5 C 9.96875 -27.28125 9.882812 -27.066406 9.78125 -26.859375 C 9.6875 -26.648438 9.59375 -26.429688 9.5 -26.203125 C 9.40625 -25.984375 9.3125 -25.757812 9.21875 -25.53125 C 9.125 -25.3125 9.023438 -25.085938 8.921875 -24.859375 C 8.097656 -22.941406 7.285156 -20.914062 6.484375 -18.78125 C 5.679688 -16.65625 4.941406 -14.507812 4.265625 -12.34375 C 3.597656 -10.132812 3.015625 -7.914062 2.515625 -5.6875 C 2.023438 -3.46875 1.664062 -1.300781 1.4375 0.8125 C 1.40625 0.875 1.390625 1.035156 1.390625 1.296875 C 1.390625 1.484375 1.421875 1.613281 1.484375 1.6875 C 1.515625 1.71875 1.5625 1.734375 1.625 1.734375 C 1.726562 1.734375 1.8125 1.648438 1.875 1.484375 C 2.03125 1.203125 2.1875 0.914062 2.34375 0.625 C 2.507812 0.332031 2.671875 0.03125 2.828125 -0.28125 C 3.367188 -1.40625 4.070312 -2.816406 4.9375 -4.515625 C 6.695312 -7.929688 8.78125 -11.625 11.1875 -15.59375 C 12.40625 -17.519531 13.601562 -19.296875 14.78125 -20.921875 C 16 -22.523438 17.179688 -23.894531 18.328125 -25.03125 C 19.484375 -26.164062 20.554688 -26.863281 21.546875 -27.125 C 21.710938 -27.15625 21.859375 -27.175781 21.984375 -27.1875 C 22.109375 -27.207031 22.203125 -27.21875 22.265625 -27.21875 C 23.097656 -27.21875 23.707031 -26.785156 24.09375 -25.921875 C 24.1875 -25.660156 24.273438 -25.398438 24.359375 -25.140625 C 24.441406 -24.890625 24.46875 -24.640625 24.4375 -24.390625 C 24.4375 -24.222656 24.4375 -24.050781 24.4375 -23.875 C 24.4375 -23.695312 24.453125 -23.53125 24.484375 -23.375 C 24.484375 -23.21875 24.472656 -23.050781 24.453125 -22.875 C 24.441406 -22.695312 24.421875 -22.53125 24.390625 -22.375 C 24.097656 -20.320312 23.597656 -18.367188 22.890625 -16.515625 C 22.191406 -14.660156 21.234375 -12.882812 20.015625 -11.1875 C 19.566406 -10.570312 18.941406 -9.859375 18.140625 -9.046875 C 17.335938 -8.234375 16.476562 -7.53125 15.5625 -6.9375 C 14.65625 -6.34375 13.804688 -6.046875 13.015625 -6.046875 C 11.921875 -6.046875 11.296875 -6.554688 11.140625 -7.578125 C 10.878906 -8.921875 11.179688 -10.09375 12.046875 -11.09375 C 12.304688 -11.4375 12.609375 -11.71875 12.953125 -11.9375 C 13.304688 -12.164062 13.675781 -12.378906 14.0625 -12.578125 C 14.09375 -12.609375 14.140625 -12.625 14.203125 -12.625 L 14.40625 -12.625 C 14.65625 -12.625 14.8125 -12.546875 14.875 -12.390625 C 15.070312 -12.097656 15.039062 -11.851562 14.78125 -11.65625 C 14.6875 -11.59375 14.59375 -11.519531 14.5 -11.4375 C 14.40625 -11.363281 14.304688 -11.296875 14.203125 -11.234375 C 14.109375 -11.171875 14.015625 -11.101562 13.921875 -11.03125 C 13.828125 -10.96875 13.726562 -10.90625 13.625 -10.84375 C 13.144531 -10.53125 12.8125 -10.140625 12.625 -9.671875 C 12.4375 -9.203125 12.320312 -8.695312 12.28125 -8.15625 C 12.28125 -7.800781 12.375 -7.566406 12.5625 -7.453125 C 12.757812 -7.347656 13.019531 -7.296875 13.34375 -7.296875 C 13.664062 -7.359375 13.960938 -7.46875 14.234375 -7.625 C 14.503906 -7.789062 14.769531 -7.953125 15.03125 -8.109375 C 16.625 -9.128906 17.976562 -10.441406 19.09375 -12.046875 C 20.21875 -13.648438 21.113281 -15.382812 21.78125 -17.25 C 22.457031 -19.125 22.925781 -20.957031 23.1875 -22.75 C 23.28125 -23.550781 23.265625 -24.238281 23.140625 -24.8125 C 23.003906 -25.582031 22.695312 -25.96875 22.21875 -25.96875 C 22 -25.96875 21.710938 -25.875 21.359375 -25.6875 C 20.910156 -25.457031 20.4375 -25.140625 19.9375 -24.734375 C 19.445312 -24.335938 18.929688 -23.867188 18.390625 -23.328125 C 17.328125 -22.242188 16.265625 -20.960938 15.203125 -19.484375 C 14.148438 -18.015625 13.113281 -16.445312 12.09375 -14.78125 C 11.101562 -13.113281 10.144531 -11.484375 9.21875 -9.890625 C 8.738281 -8.992188 8.21875 -8.023438 7.65625 -6.984375 C 7.09375 -5.941406 6.578125 -4.957031 6.109375 -4.03125 C 5.648438 -3.101562 5.257812 -2.351562 4.9375 -1.78125 C 4.75 -1.394531 4.554688 -1.007812 4.359375 -0.625 C 4.171875 -0.238281 3.984375 0.144531 3.796875 0.53125 C 3.597656 0.914062 3.398438 1.296875 3.203125 1.671875 C 3.015625 2.054688 2.8125 2.425781 2.59375 2.78125 C 2.53125 2.90625 2.457031 3.03125 2.375 3.15625 C 2.289062 3.289062 2.21875 3.421875 2.15625 3.546875 C 2.03125 3.773438 1.835938 3.984375 1.578125 4.171875 C 1.390625 4.367188 1.164062 4.46875 0.90625 4.46875 Z M 0.90625 4.46875 "/></g></g></g><g fill="#d9d9d9" fill-opacity="1"><g transform="translate(91.716863, 30.128563)"><g><path d="M 0.234375 -4.125 C -0.398438 -4.125 -0.75 -4.507812 -0.8125 -5.28125 C -0.8125 -5.988281 -0.660156 -6.738281 -0.359375 -7.53125 C -0.0546875 -8.332031 0.320312 -9.097656 0.78125 -9.828125 C 1.25 -10.566406 1.722656 -11.175781 2.203125 -11.65625 C 2.335938 -11.820312 2.578125 -12.03125 2.921875 -12.28125 C 3.441406 -12.695312 3.972656 -12.90625 4.515625 -12.90625 C 4.992188 -12.90625 5.472656 -12.71875 5.953125 -12.34375 C 6.210938 -12.175781 6.359375 -12.09375 6.390625 -12.09375 C 6.484375 -12.09375 6.625 -12.222656 6.8125 -12.484375 C 6.976562 -12.640625 7.128906 -12.8125 7.265625 -13 C 7.410156 -13.195312 7.550781 -13.390625 7.6875 -13.578125 C 7.8125 -13.773438 7.941406 -13.96875 8.078125 -14.15625 C 8.222656 -14.351562 8.363281 -14.546875 8.5 -14.734375 C 8.5625 -14.796875 8.625 -14.875 8.6875 -14.96875 C 8.75 -15.070312 8.8125 -15.171875 8.875 -15.265625 C 8.9375 -15.328125 8.992188 -15.40625 9.046875 -15.5 C 9.097656 -15.59375 9.15625 -15.675781 9.21875 -15.75 C 9.4375 -15.96875 9.628906 -16.078125 9.796875 -16.078125 C 9.796875 -16.078125 9.890625 -16.046875 10.078125 -15.984375 C 10.398438 -15.796875 10.476562 -15.476562 10.3125 -15.03125 C 10.28125 -14.894531 10.238281 -14.78125 10.1875 -14.6875 C 10.144531 -14.59375 10.09375 -14.5 10.03125 -14.40625 C 9.90625 -14.175781 9.796875 -13.953125 9.703125 -13.734375 C 9.410156 -13.117188 9.070312 -12.363281 8.6875 -11.46875 C 8.300781 -10.570312 7.972656 -9.664062 7.703125 -8.75 C 7.429688 -7.84375 7.296875 -7.039062 7.296875 -6.34375 C 7.296875 -6.050781 7.390625 -5.90625 7.578125 -5.90625 C 7.679688 -5.90625 7.75 -5.921875 7.78125 -5.953125 C 8 -6.046875 8.210938 -6.140625 8.421875 -6.234375 C 8.628906 -6.335938 8.847656 -6.453125 9.078125 -6.578125 C 9.359375 -6.765625 9.648438 -6.960938 9.953125 -7.171875 C 10.265625 -7.378906 10.5625 -7.613281 10.84375 -7.875 C 11.070312 -8.03125 11.28125 -8.203125 11.46875 -8.390625 C 11.664062 -8.585938 11.859375 -8.765625 12.046875 -8.921875 C 12.398438 -9.273438 12.785156 -9.613281 13.203125 -9.9375 C 13.265625 -10 13.332031 -10.0625 13.40625 -10.125 C 13.488281 -10.1875 13.5625 -10.25 13.625 -10.3125 C 13.695312 -10.382812 13.828125 -10.484375 14.015625 -10.609375 C 14.078125 -10.640625 14.125 -10.660156 14.15625 -10.671875 C 14.1875 -10.691406 14.21875 -10.703125 14.25 -10.703125 C 14.382812 -10.703125 14.5 -10.65625 14.59375 -10.5625 C 14.8125 -10.4375 14.875 -10.195312 14.78125 -9.84375 C 14.75 -9.8125 14.734375 -9.785156 14.734375 -9.765625 C 14.734375 -9.753906 14.71875 -9.734375 14.6875 -9.703125 C 14.65625 -9.660156 14.625 -9.625 14.59375 -9.59375 C 14.5625 -9.5625 14.53125 -9.53125 14.5 -9.5 C 14.050781 -9.050781 13.410156 -8.453125 12.578125 -7.703125 C 11.742188 -6.953125 10.882812 -6.269531 10 -5.65625 C 9.125 -5.050781 8.351562 -4.6875 7.6875 -4.5625 C 7.613281 -4.53125 7.46875 -4.515625 7.25 -4.515625 C 6.445312 -4.515625 6.046875 -4.976562 6.046875 -5.90625 C 6.046875 -6.539062 6.109375 -7.175781 6.234375 -7.8125 C 6.367188 -8.457031 6.515625 -9.101562 6.671875 -9.75 C 6.316406 -9.582031 6.078125 -9.421875 5.953125 -9.265625 C 5.890625 -9.171875 5.804688 -9.070312 5.703125 -8.96875 C 5.609375 -8.875 5.53125 -8.796875 5.46875 -8.734375 C 4.925781 -8.097656 4.382812 -7.484375 3.84375 -6.890625 C 3.300781 -6.296875 2.722656 -5.726562 2.109375 -5.1875 C 1.890625 -4.988281 1.601562 -4.757812 1.25 -4.5 C 0.894531 -4.25 0.554688 -4.125 0.234375 -4.125 Z M 0.671875 -5.859375 C 0.859375 -5.859375 1.003906 -5.90625 1.109375 -6 C 1.867188 -6.632812 2.582031 -7.335938 3.25 -8.109375 C 3.925781 -8.878906 4.585938 -9.664062 5.234375 -10.46875 C 5.265625 -10.5 5.296875 -10.53125 5.328125 -10.5625 C 5.359375 -10.59375 5.390625 -10.640625 5.421875 -10.703125 C 5.515625 -11.023438 5.453125 -11.25 5.234375 -11.375 C 4.972656 -11.53125 4.75 -11.609375 4.5625 -11.609375 C 4.394531 -11.609375 4.191406 -11.546875 3.953125 -11.421875 C 3.710938 -11.296875 3.53125 -11.171875 3.40625 -11.046875 C 1.90625 -9.734375 0.960938 -8.035156 0.578125 -5.953125 L 0.625 -5.90625 C 0.65625 -5.90625 0.671875 -5.890625 0.671875 -5.859375 Z M 0.671875 -5.859375 "/></g></g></g><g fill="#d9d9d9" fill-opacity="1"><g transform="translate(104.145833, 30.128563)"><g><path d="M -0.09375 2.25 C -0.351562 2.15625 -0.484375 2 -0.484375 1.78125 C -0.484375 1.613281 -0.472656 1.453125 -0.453125 1.296875 C -0.441406 1.140625 -0.421875 0.976562 -0.390625 0.8125 C -0.316406 0.0078125 -0.222656 -0.769531 -0.109375 -1.53125 C -0.00390625 -2.300781 0.109375 -3.070312 0.234375 -3.84375 C 0.367188 -4.601562 0.5 -5.367188 0.625 -6.140625 C 0.75 -6.910156 0.878906 -7.695312 1.015625 -8.5 C 1.140625 -9.332031 1.304688 -10.144531 1.515625 -10.9375 C 1.722656 -11.738281 1.953125 -12.539062 2.203125 -13.34375 C 2.941406 -15.9375 3.734375 -18.476562 4.578125 -20.96875 C 5.429688 -23.46875 6.414062 -25.953125 7.53125 -28.421875 C 7.695312 -28.703125 7.863281 -28.96875 8.03125 -29.21875 C 8.207031 -29.476562 8.394531 -29.738281 8.59375 -30 C 8.71875 -30.226562 8.894531 -30.34375 9.125 -30.34375 C 9.25 -30.34375 9.328125 -30.320312 9.359375 -30.28125 C 9.648438 -30.125 9.765625 -29.851562 9.703125 -29.46875 C 9.660156 -28.988281 9.5625 -28.523438 9.40625 -28.078125 C 8.925781 -26.410156 8.363281 -24.773438 7.71875 -23.171875 C 7.082031 -21.578125 6.429688 -19.984375 5.765625 -18.390625 C 5.691406 -18.222656 5.613281 -18.066406 5.53125 -17.921875 C 5.457031 -17.785156 5.390625 -17.632812 5.328125 -17.46875 C 5.265625 -17.3125 5.191406 -17.148438 5.109375 -16.984375 C 5.023438 -16.828125 4.953125 -16.671875 4.890625 -16.515625 C 4.441406 -15.679688 3.992188 -14.597656 3.546875 -13.265625 C 3.097656 -11.941406 2.722656 -10.59375 2.421875 -9.21875 C 2.117188 -7.84375 1.921875 -6.65625 1.828125 -5.65625 C 2.109375 -5.695312 2.300781 -5.828125 2.40625 -6.046875 C 2.46875 -6.140625 2.519531 -6.234375 2.5625 -6.328125 C 2.613281 -6.429688 2.65625 -6.515625 2.6875 -6.578125 C 3.226562 -7.410156 3.828125 -8.191406 4.484375 -8.921875 C 5.140625 -9.660156 5.882812 -10.332031 6.71875 -10.9375 C 6.875 -11.039062 7.03125 -11.140625 7.1875 -11.234375 C 7.351562 -11.328125 7.519531 -11.421875 7.6875 -11.515625 C 8.03125 -11.710938 8.363281 -11.859375 8.6875 -11.953125 C 8.976562 -12.046875 9.25 -12.09375 9.5 -12.09375 C 10.457031 -12.09375 10.953125 -11.5 10.984375 -10.3125 C 11.054688 -10 11.054688 -9.664062 10.984375 -9.3125 C 10.953125 -9.15625 10.925781 -8.988281 10.90625 -8.8125 C 10.894531 -8.632812 10.875 -8.460938 10.84375 -8.296875 C 10.84375 -8.109375 10.828125 -7.984375 10.796875 -7.921875 C 10.765625 -7.796875 10.796875 -7.664062 10.890625 -7.53125 L 11.046875 -7.53125 C 11.203125 -7.53125 11.328125 -7.582031 11.421875 -7.6875 C 11.484375 -7.71875 11.535156 -7.75 11.578125 -7.78125 C 11.628906 -7.8125 11.675781 -7.84375 11.71875 -7.875 C 12.613281 -8.414062 13.53125 -8.914062 14.46875 -9.375 C 15.414062 -9.84375 16.351562 -10.300781 17.28125 -10.75 C 17.34375 -10.78125 17.40625 -10.8125 17.46875 -10.84375 C 17.53125 -10.875 17.613281 -10.90625 17.71875 -10.9375 C 17.75 -10.96875 17.84375 -10.984375 18 -10.984375 C 18.320312 -10.984375 18.5 -10.875 18.53125 -10.65625 C 18.625 -10.269531 18.507812 -10.015625 18.1875 -9.890625 C 18.0625 -9.828125 17.929688 -9.753906 17.796875 -9.671875 C 17.671875 -9.585938 17.546875 -9.515625 17.421875 -9.453125 C 17.296875 -9.390625 17.164062 -9.328125 17.03125 -9.265625 C 16.90625 -9.203125 16.78125 -9.140625 16.65625 -9.078125 C 14.800781 -8.179688 12.976562 -7.171875 11.1875 -6.046875 C 10.738281 -5.753906 10.351562 -5.441406 10.03125 -5.109375 C 9.707031 -4.773438 9.4375 -4.367188 9.21875 -3.890625 C 8.988281 -3.441406 8.625 -2.890625 8.125 -2.234375 C 7.632812 -1.578125 7.097656 -0.984375 6.515625 -0.453125 C 5.941406 0.078125 5.382812 0.375 4.84375 0.4375 C 4.53125 0.46875 4.273438 0.367188 4.078125 0.140625 C 3.890625 -0.078125 3.828125 -0.347656 3.890625 -0.671875 C 4.015625 -1.210938 4.316406 -1.765625 4.796875 -2.328125 C 5.273438 -2.890625 5.800781 -3.425781 6.375 -3.9375 C 6.957031 -4.445312 7.457031 -4.863281 7.875 -5.1875 C 8.644531 -5.726562 9.125 -6.445312 9.3125 -7.34375 C 9.4375 -7.789062 9.546875 -8.242188 9.640625 -8.703125 C 9.742188 -9.171875 9.78125 -9.644531 9.75 -10.125 C 9.75 -10.539062 9.570312 -10.75 9.21875 -10.75 C 9.050781 -10.75 8.953125 -10.734375 8.921875 -10.703125 C 8.640625 -10.609375 8.378906 -10.488281 8.140625 -10.34375 C 7.898438 -10.195312 7.648438 -10.046875 7.390625 -9.890625 C 5.535156 -8.484375 4.164062 -6.84375 3.28125 -4.96875 C 2.40625 -3.09375 1.597656 -1.066406 0.859375 1.109375 C 0.828125 1.171875 0.800781 1.25 0.78125 1.34375 C 0.769531 1.4375 0.75 1.515625 0.71875 1.578125 C 0.6875 1.648438 0.660156 1.722656 0.640625 1.796875 C 0.628906 1.878906 0.609375 1.953125 0.578125 2.015625 C 0.515625 2.171875 0.335938 2.25 0.046875 2.25 Z M -0.09375 2.25 "/></g></g></g><g fill="#d9d9d9" fill-opacity="1"><g transform="translate(120.31789, 30.128563)"><g><path d="M 1.578125 2.546875 C 1.128906 2.546875 0.773438 2.304688 0.515625 1.828125 C 0.265625 1.347656 0.109375 0.914062 0.046875 0.53125 C 0.015625 0.363281 0 0.203125 0 0.046875 C 0 -0.109375 0 -0.253906 0 -0.390625 C 0 -0.546875 0 -0.675781 0 -0.78125 C 0 -0.894531 0 -0.988281 0 -1.0625 C 0.03125 -2.269531 0.117188 -3.398438 0.265625 -4.453125 C 0.410156 -5.515625 0.59375 -6.554688 0.8125 -7.578125 C 0.875 -7.835938 0.929688 -8.109375 0.984375 -8.390625 C 1.035156 -8.679688 0.945312 -8.957031 0.71875 -9.21875 C 0.625 -9.34375 0.597656 -9.46875 0.640625 -9.59375 C 0.691406 -9.726562 0.765625 -9.84375 0.859375 -9.9375 C 1.210938 -10.382812 1.484375 -10.851562 1.671875 -11.34375 C 1.867188 -11.84375 2.046875 -12.363281 2.203125 -12.90625 C 2.554688 -14 2.988281 -15.234375 3.5 -16.609375 C 4.007812 -17.984375 4.582031 -19.375 5.21875 -20.78125 C 5.863281 -22.1875 6.554688 -23.503906 7.296875 -24.734375 C 8.035156 -25.972656 8.816406 -27.007812 9.640625 -27.84375 C 9.898438 -28.03125 10.125 -28.125 10.3125 -28.125 C 10.351562 -28.125 10.394531 -28.113281 10.4375 -28.09375 C 10.488281 -28.082031 10.5625 -28.0625 10.65625 -28.03125 C 10.875 -27.9375 11.007812 -27.800781 11.0625 -27.625 C 11.113281 -27.445312 11.125 -27.265625 11.09375 -27.078125 C 10.863281 -26.109375 10.46875 -24.992188 9.90625 -23.734375 C 9.351562 -22.472656 8.710938 -21.175781 7.984375 -19.84375 C 7.265625 -18.519531 6.535156 -17.253906 5.796875 -16.046875 C 5.066406 -14.847656 4.429688 -13.835938 3.890625 -13.015625 C 3.316406 -12.179688 2.859375 -11.109375 2.515625 -9.796875 C 2.179688 -8.484375 1.914062 -7.144531 1.71875 -5.78125 C 1.53125 -4.425781 1.390625 -3.25 1.296875 -2.25 C 1.234375 -1.769531 1.191406 -1.28125 1.171875 -0.78125 C 1.160156 -0.289062 1.234375 0.191406 1.390625 0.671875 C 1.453125 0.929688 1.597656 1.0625 1.828125 1.0625 C 2.046875 1.0625 2.332031 0.851562 2.6875 0.4375 C 3.039062 0.0195312 3.28125 -0.269531 3.40625 -0.4375 C 4.53125 -1.875 5.679688 -3.398438 6.859375 -5.015625 C 8.046875 -6.628906 9.164062 -8.171875 10.21875 -9.640625 C 10.28125 -9.773438 10.40625 -9.976562 10.59375 -10.25 C 10.789062 -10.519531 10.972656 -10.65625 11.140625 -10.65625 C 11.171875 -10.65625 11.28125 -10.625 11.46875 -10.5625 C 11.695312 -10.46875 11.78125 -10.289062 11.71875 -10.03125 C 11.71875 -9.769531 11.648438 -9.578125 11.515625 -9.453125 C 11.421875 -9.265625 11.304688 -9.066406 11.171875 -8.859375 C 11.046875 -8.648438 10.921875 -8.445312 10.796875 -8.25 C 10.285156 -7.613281 9.773438 -6.953125 9.265625 -6.265625 C 8.753906 -5.578125 8.242188 -4.863281 7.734375 -4.125 C 7.210938 -3.394531 6.6875 -2.675781 6.15625 -1.96875 C 5.632812 -1.257812 5.117188 -0.570312 4.609375 0.09375 C 4.453125 0.351562 4.1875 0.679688 3.8125 1.078125 C 3.445312 1.484375 3.0625 1.828125 2.65625 2.109375 C 2.257812 2.398438 1.898438 2.546875 1.578125 2.546875 Z M 5.46875 -17.234375 C 5.46875 -17.265625 5.484375 -17.28125 5.515625 -17.28125 C 5.515625 -17.28125 5.515625 -17.265625 5.515625 -17.234375 C 5.960938 -18.128906 6.414062 -19.03125 6.875 -19.9375 C 7.34375 -20.851562 7.816406 -21.757812 8.296875 -22.65625 L 9.59375 -25.25 L 9.59375 -25.296875 C 9.5625 -25.328125 9.546875 -25.359375 9.546875 -25.390625 C 9.546875 -25.328125 9.5625 -25.28125 9.59375 -25.25 C 9.40625 -25.3125 9.3125 -25.34375 9.3125 -25.34375 C 9.1875 -25.34375 9.023438 -25.210938 8.828125 -24.953125 C 8.191406 -23.867188 7.59375 -22.773438 7.03125 -21.671875 C 6.46875 -20.566406 5.960938 -19.421875 5.515625 -18.234375 C 5.359375 -17.816406 5.34375 -17.484375 5.46875 -17.234375 Z M 5.46875 -17.234375 "/></g></g></g><g fill="#d9d9d9" fill-opacity="1"><g transform="translate(129.627623, 30.128563)"><g><path d="M 2.015625 -2.40625 C 1.441406 -2.40625 0.929688 -2.578125 0.484375 -2.921875 C 0.0351562 -3.273438 -0.253906 -3.773438 -0.390625 -4.421875 C -0.484375 -4.898438 -0.515625 -5.3125 -0.484375 -5.65625 C -0.421875 -6.332031 -0.226562 -7.109375 0.09375 -7.984375 C 0.414062 -8.867188 0.847656 -9.691406 1.390625 -10.453125 C 1.929688 -11.222656 2.507812 -11.722656 3.125 -11.953125 C 3.3125 -12.046875 3.519531 -12.09375 3.75 -12.09375 C 4.03125 -12.0625 4.203125 -11.898438 4.265625 -11.609375 C 4.335938 -11.234375 4.242188 -11.023438 3.984375 -10.984375 C 3.441406 -10.890625 3.023438 -10.664062 2.734375 -10.3125 C 2.441406 -9.96875 2.171875 -9.585938 1.921875 -9.171875 C 1.472656 -8.304688 1.148438 -7.488281 0.953125 -6.71875 C 0.828125 -6.363281 0.765625 -5.898438 0.765625 -5.328125 C 0.765625 -4.398438 1.085938 -3.859375 1.734375 -3.703125 C 2.109375 -3.703125 2.425781 -3.75 2.6875 -3.84375 C 2.945312 -3.9375 3.1875 -4.175781 3.40625 -4.5625 C 3.726562 -5.070312 3.921875 -5.582031 3.984375 -6.09375 C 4.046875 -6.601562 3.898438 -7.132812 3.546875 -7.6875 C 3.359375 -8 3.203125 -8.316406 3.078125 -8.640625 C 3.003906 -8.796875 3.023438 -8.945312 3.140625 -9.09375 C 3.253906 -9.238281 3.390625 -9.328125 3.546875 -9.359375 L 5.046875 -9.359375 C 5.941406 -9.359375 6.835938 -9.503906 7.734375 -9.796875 C 7.953125 -9.859375 8.171875 -9.9375 8.390625 -10.03125 C 8.617188 -10.125 8.847656 -10.203125 9.078125 -10.265625 C 9.296875 -10.335938 9.507812 -10.421875 9.71875 -10.515625 C 9.925781 -10.609375 10.144531 -10.6875 10.375 -10.75 L 11.140625 -10.9375 C 11.390625 -10.9375 11.597656 -10.8125 11.765625 -10.5625 C 11.921875 -10.175781 11.789062 -9.921875 11.375 -9.796875 C 10.925781 -9.628906 10.476562 -9.46875 10.03125 -9.3125 C 9.582031 -9.15625 9.132812 -8.992188 8.6875 -8.828125 C 8.238281 -8.671875 7.78125 -8.535156 7.3125 -8.421875 C 6.851562 -8.304688 6.367188 -8.21875 5.859375 -8.15625 C 5.410156 -8.09375 5.160156 -8.019531 5.109375 -7.9375 C 5.066406 -7.863281 5.078125 -7.617188 5.140625 -7.203125 C 5.328125 -6.273438 5.210938 -5.363281 4.796875 -4.46875 C 4.472656 -3.789062 3.992188 -3.226562 3.359375 -2.78125 C 2.910156 -2.53125 2.460938 -2.40625 2.015625 -2.40625 Z M 2.015625 -2.40625 "/></g></g></g><g fill="#d9d9d9" fill-opacity="1"><g transform="translate(139.033327, 30.128563)"><g/></g></g><g fill="#d9d9d9" fill-opacity="1"><g transform="translate(157.26888, 30.128563)"><g><path d="M 0.71875 3.703125 C 0.144531 3.703125 -0.078125 3.347656 0.046875 2.640625 L 0.1875 2.015625 C 0.800781 0.378906 1.382812 -1.25 1.9375 -2.875 C 2.5 -4.507812 3.035156 -6.160156 3.546875 -7.828125 C 4.054688 -9.453125 4.582031 -11.082031 5.125 -12.71875 C 5.675781 -14.351562 6.253906 -15.96875 6.859375 -17.5625 C 6.960938 -17.757812 7.15625 -18.207031 7.4375 -18.90625 C 7.726562 -19.613281 8.039062 -20.367188 8.375 -21.171875 C 8.707031 -21.972656 8.972656 -22.613281 9.171875 -23.09375 C 9.390625 -23.570312 9.660156 -24.171875 9.984375 -24.890625 C 10.304688 -25.609375 10.632812 -26.265625 10.96875 -26.859375 C 11.300781 -27.453125 11.566406 -27.796875 11.765625 -27.890625 C 11.828125 -27.953125 11.921875 -27.953125 12.046875 -27.890625 C 12.203125 -27.890625 12.300781 -27.789062 12.34375 -27.59375 C 12.375 -27.3125 12.320312 -27.054688 12.1875 -26.828125 L 11.046875 -24.4375 C 9.953125 -22.226562 8.988281 -19.96875 8.15625 -17.65625 C 7.132812 -14.65625 6.117188 -11.65625 5.109375 -8.65625 C 4.097656 -5.664062 3.113281 -2.648438 2.15625 0.390625 C 2.09375 0.578125 2.03125 0.765625 1.96875 0.953125 C 1.90625 1.148438 1.84375 1.359375 1.78125 1.578125 C 1.78125 1.710938 1.84375 1.78125 1.96875 1.78125 C 2.03125 1.8125 2.125 1.8125 2.25 1.78125 C 3.40625 1.269531 4.625 0.914062 5.90625 0.71875 C 6.507812 0.59375 7.113281 0.476562 7.71875 0.375 C 8.332031 0.28125 8.941406 0.171875 9.546875 0.046875 C 10.578125 -0.140625 11.601562 -0.34375 12.625 -0.5625 C 13.644531 -0.789062 14.671875 -1.019531 15.703125 -1.25 C 15.796875 -1.28125 15.894531 -1.3125 16 -1.34375 C 16.113281 -1.375 16.21875 -1.390625 16.3125 -1.390625 C 16.476562 -1.421875 16.613281 -1.363281 16.71875 -1.21875 C 16.832031 -1.082031 16.875 -0.929688 16.84375 -0.765625 C 16.84375 -0.515625 16.695312 -0.332031 16.40625 -0.21875 C 16.125 -0.101562 15.867188 -0.03125 15.640625 0 C 14.296875 0.320312 12.953125 0.625 11.609375 0.90625 C 10.265625 1.195312 8.890625 1.4375 7.484375 1.625 C 6.648438 1.757812 5.816406 1.9375 4.984375 2.15625 C 4.160156 2.382812 3.347656 2.675781 2.546875 3.03125 C 2.421875 3.09375 2.300781 3.15625 2.1875 3.21875 C 2.070312 3.28125 1.953125 3.34375 1.828125 3.40625 C 1.691406 3.4375 1.566406 3.472656 1.453125 3.515625 C 1.347656 3.566406 1.234375 3.609375 1.109375 3.640625 C 1.046875 3.679688 0.914062 3.703125 0.71875 3.703125 Z M 0.71875 3.703125 "/></g></g></g><g fill="#d9d9d9" fill-opacity="1"><g transform="translate(170.753589, 30.128563)"><g><path d="M 0.234375 -4.125 C -0.398438 -4.125 -0.75 -4.507812 -0.8125 -5.28125 C -0.8125 -5.988281 -0.660156 -6.738281 -0.359375 -7.53125 C -0.0546875 -8.332031 0.320312 -9.097656 0.78125 -9.828125 C 1.25 -10.566406 1.722656 -11.175781 2.203125 -11.65625 C 2.335938 -11.820312 2.578125 -12.03125 2.921875 -12.28125 C 3.441406 -12.695312 3.972656 -12.90625 4.515625 -12.90625 C 4.992188 -12.90625 5.472656 -12.71875 5.953125 -12.34375 C 6.210938 -12.175781 6.359375 -12.09375 6.390625 -12.09375 C 6.484375 -12.09375 6.625 -12.222656 6.8125 -12.484375 C 6.976562 -12.640625 7.128906 -12.8125 7.265625 -13 C 7.410156 -13.195312 7.550781 -13.390625 7.6875 -13.578125 C 7.8125 -13.773438 7.941406 -13.96875 8.078125 -14.15625 C 8.222656 -14.351562 8.363281 -14.546875 8.5 -14.734375 C 8.5625 -14.796875 8.625 -14.875 8.6875 -14.96875 C 8.75 -15.070312 8.8125 -15.171875 8.875 -15.265625 C 8.9375 -15.328125 8.992188 -15.40625 9.046875 -15.5 C 9.097656 -15.59375 9.15625 -15.675781 9.21875 -15.75 C 9.4375 -15.96875 9.628906 -16.078125 9.796875 -16.078125 C 9.796875 -16.078125 9.890625 -16.046875 10.078125 -15.984375 C 10.398438 -15.796875 10.476562 -15.476562 10.3125 -15.03125 C 10.28125 -14.894531 10.238281 -14.78125 10.1875 -14.6875 C 10.144531 -14.59375 10.09375 -14.5 10.03125 -14.40625 C 9.90625 -14.175781 9.796875 -13.953125 9.703125 -13.734375 C 9.410156 -13.117188 9.070312 -12.363281 8.6875 -11.46875 C 8.300781 -10.570312 7.972656 -9.664062 7.703125 -8.75 C 7.429688 -7.84375 7.296875 -7.039062 7.296875 -6.34375 C 7.296875 -6.050781 7.390625 -5.90625 7.578125 -5.90625 C 7.679688 -5.90625 7.75 -5.921875 7.78125 -5.953125 C 8 -6.046875 8.210938 -6.140625 8.421875 -6.234375 C 8.628906 -6.335938 8.847656 -6.453125 9.078125 -6.578125 C 9.359375 -6.765625 9.648438 -6.960938 9.953125 -7.171875 C 10.265625 -7.378906 10.5625 -7.613281 10.84375 -7.875 C 11.070312 -8.03125 11.28125 -8.203125 11.46875 -8.390625 C 11.664062 -8.585938 11.859375 -8.765625 12.046875 -8.921875 C 12.398438 -9.273438 12.785156 -9.613281 13.203125 -9.9375 C 13.265625 -10 13.332031 -10.0625 13.40625 -10.125 C 13.488281 -10.1875 13.5625 -10.25 13.625 -10.3125 C 13.695312 -10.382812 13.828125 -10.484375 14.015625 -10.609375 C 14.078125 -10.640625 14.125 -10.660156 14.15625 -10.671875 C 14.1875 -10.691406 14.21875 -10.703125 14.25 -10.703125 C 14.382812 -10.703125 14.5 -10.65625 14.59375 -10.5625 C 14.8125 -10.4375 14.875 -10.195312 14.78125 -9.84375 C 14.75 -9.8125 14.734375 -9.785156 14.734375 -9.765625 C 14.734375 -9.753906 14.71875 -9.734375 14.6875 -9.703125 C 14.65625 -9.660156 14.625 -9.625 14.59375 -9.59375 C 14.5625 -9.5625 14.53125 -9.53125 14.5 -9.5 C 14.050781 -9.050781 13.410156 -8.453125 12.578125 -7.703125 C 11.742188 -6.953125 10.882812 -6.269531 10 -5.65625 C 9.125 -5.050781 8.351562 -4.6875 7.6875 -4.5625 C 7.613281 -4.53125 7.46875 -4.515625 7.25 -4.515625 C 6.445312 -4.515625 6.046875 -4.976562 6.046875 -5.90625 C 6.046875 -6.539062 6.109375 -7.175781 6.234375 -7.8125 C 6.367188 -8.457031 6.515625 -9.101562 6.671875 -9.75 C 6.316406 -9.582031 6.078125 -9.421875 5.953125 -9.265625 C 5.890625 -9.171875 5.804688 -9.070312 5.703125 -8.96875 C 5.609375 -8.875 5.53125 -8.796875 5.46875 -8.734375 C 4.925781 -8.097656 4.382812 -7.484375 3.84375 -6.890625 C 3.300781 -6.296875 2.722656 -5.726562 2.109375 -5.1875 C 1.890625 -4.988281 1.601562 -4.757812 1.25 -4.5 C 0.894531 -4.25 0.554688 -4.125 0.234375 -4.125 Z M 0.671875 -5.859375 C 0.859375 -5.859375 1.003906 -5.90625 1.109375 -6 C 1.867188 -6.632812 2.582031 -7.335938 3.25 -8.109375 C 3.925781 -8.878906 4.585938 -9.664062 5.234375 -10.46875 C 5.265625 -10.5 5.296875 -10.53125 5.328125 -10.5625 C 5.359375 -10.59375 5.390625 -10.640625 5.421875 -10.703125 C 5.515625 -11.023438 5.453125 -11.25 5.234375 -11.375 C 4.972656 -11.53125 4.75 -11.609375 4.5625 -11.609375 C 4.394531 -11.609375 4.191406 -11.546875 3.953125 -11.421875 C 3.710938 -11.296875 3.53125 -11.171875 3.40625 -11.046875 C 1.90625 -9.734375 0.960938 -8.035156 0.578125 -5.953125 L 0.625 -5.90625 C 0.65625 -5.90625 0.671875 -5.890625 0.671875 -5.859375 Z M 0.671875 -5.859375 "/></g></g></g><g fill="#d9d9d9" fill-opacity="1"><g transform="translate(183.182559, 30.128563)"><g><path d="M -0.234375 -0.484375 C -0.617188 -0.484375 -0.84375 -0.707031 -0.90625 -1.15625 C -0.9375 -1.25 -0.953125 -1.457031 -0.953125 -1.78125 C -0.859375 -2.613281 -0.695312 -3.425781 -0.46875 -4.21875 C -0.25 -5.019531 -0.015625 -5.820312 0.234375 -6.625 C 0.460938 -7.226562 0.6875 -7.828125 0.90625 -8.421875 C 1.132812 -9.015625 1.359375 -9.613281 1.578125 -10.21875 C 1.804688 -10.832031 2.03125 -11.429688 2.25 -12.015625 C 2.476562 -12.609375 2.703125 -13.210938 2.921875 -13.828125 C 3.085938 -14.046875 3.273438 -14.382812 3.484375 -14.84375 C 3.691406 -15.3125 3.921875 -15.546875 4.171875 -15.546875 C 4.171875 -15.546875 4.269531 -15.515625 4.46875 -15.453125 C 4.78125 -15.265625 4.859375 -14.992188 4.703125 -14.640625 L 4.421875 -14.0625 C 4.191406 -13.457031 3.957031 -12.847656 3.71875 -12.234375 C 3.476562 -11.628906 3.25 -11.023438 3.03125 -10.421875 C 2.800781 -9.804688 2.566406 -9.1875 2.328125 -8.5625 C 2.085938 -7.9375 1.835938 -7.320312 1.578125 -6.71875 C 1.546875 -6.59375 1.503906 -6.457031 1.453125 -6.3125 C 1.410156 -6.164062 1.359375 -6.015625 1.296875 -5.859375 C 1.171875 -5.597656 1.1875 -5.289062 1.34375 -4.9375 C 1.53125 -5.351562 1.878906 -5.945312 2.390625 -6.71875 C 2.910156 -7.488281 3.488281 -8.289062 4.125 -9.125 C 4.769531 -9.957031 5.410156 -10.660156 6.046875 -11.234375 C 6.691406 -11.804688 7.253906 -12.09375 7.734375 -12.09375 C 8.273438 -12.09375 8.625 -11.867188 8.78125 -11.421875 C 8.945312 -10.972656 9.0625 -10.539062 9.125 -10.125 C 9.15625 -9.90625 9.175781 -9.695312 9.1875 -9.5 C 9.207031 -9.3125 9.234375 -9.117188 9.265625 -8.921875 C 9.265625 -8.734375 9.269531 -8.539062 9.28125 -8.34375 C 9.300781 -8.15625 9.328125 -7.96875 9.359375 -7.78125 C 9.390625 -7.226562 9.535156 -6.726562 9.796875 -6.28125 C 9.890625 -6.03125 10.082031 -5.90625 10.375 -5.90625 C 10.4375 -5.90625 10.484375 -5.921875 10.515625 -5.953125 C 10.515625 -5.953125 10.519531 -5.953125 10.53125 -5.953125 C 10.550781 -5.953125 10.578125 -5.953125 10.609375 -5.953125 C 10.898438 -6.046875 11.171875 -6.179688 11.421875 -6.359375 C 11.679688 -6.535156 11.9375 -6.734375 12.1875 -6.953125 C 12.414062 -7.148438 12.625 -7.34375 12.8125 -7.53125 C 13.007812 -7.726562 13.21875 -7.9375 13.4375 -8.15625 C 13.632812 -8.351562 13.835938 -8.546875 14.046875 -8.734375 C 14.253906 -8.929688 14.46875 -9.125 14.6875 -9.3125 C 14.945312 -9.53125 15.160156 -9.71875 15.328125 -9.875 C 15.503906 -10.039062 15.628906 -10.15625 15.703125 -10.21875 C 15.765625 -10.28125 15.828125 -10.34375 15.890625 -10.40625 C 15.953125 -10.476562 16 -10.53125 16.03125 -10.5625 C 16.125 -10.65625 16.238281 -10.703125 16.375 -10.703125 C 16.5 -10.703125 16.609375 -10.65625 16.703125 -10.5625 C 16.929688 -10.363281 16.992188 -10.140625 16.890625 -9.890625 C 16.796875 -9.628906 16.65625 -9.40625 16.46875 -9.21875 C 16.332031 -9.09375 16.082031 -8.859375 15.71875 -8.515625 C 15.351562 -8.179688 14.953125 -7.8125 14.515625 -7.40625 C 14.085938 -7.007812 13.6875 -6.648438 13.3125 -6.328125 C 12.945312 -6.015625 12.703125 -5.789062 12.578125 -5.65625 C 12.003906 -5.113281 11.363281 -4.78125 10.65625 -4.65625 C 10.625 -4.65625 10.59375 -4.65625 10.5625 -4.65625 C 10.53125 -4.65625 10.5 -4.65625 10.46875 -4.65625 C 10.40625 -4.625 10.320312 -4.609375 10.21875 -4.609375 C 9.582031 -4.609375 9.070312 -4.941406 8.6875 -5.609375 C 8.394531 -6.160156 8.21875 -6.753906 8.15625 -7.390625 C 8.125 -7.648438 8.097656 -7.898438 8.078125 -8.140625 C 8.066406 -8.378906 8.046875 -8.609375 8.015625 -8.828125 C 7.984375 -9.054688 7.953125 -9.289062 7.921875 -9.53125 C 7.890625 -9.769531 7.859375 -10 7.828125 -10.21875 C 7.765625 -10.476562 7.648438 -10.609375 7.484375 -10.609375 C 7.359375 -10.609375 7.25 -10.5625 7.15625 -10.46875 C 5.90625 -9.34375 4.804688 -8.078125 3.859375 -6.671875 C 2.921875 -5.265625 2.082031 -3.804688 1.34375 -2.296875 C 1.28125 -2.171875 1.207031 -2.035156 1.125 -1.890625 C 1.050781 -1.753906 0.976562 -1.601562 0.90625 -1.4375 C 0.84375 -1.28125 0.753906 -1.132812 0.640625 -1 C 0.535156 -0.875 0.398438 -0.75 0.234375 -0.625 C 0.109375 -0.53125 -0.046875 -0.484375 -0.234375 -0.484375 Z M -0.234375 -0.484375 "/></g></g></g><g fill="#d9d9d9" fill-opacity="1"><g transform="translate(197.723009, 30.128563)"><g><path d="M 7.875 7.0625 C 7.644531 7.0625 7.441406 6.851562 7.265625 6.4375 C 7.097656 6.019531 6.972656 5.515625 6.890625 4.921875 C 6.804688 4.328125 6.738281 3.757812 6.6875 3.21875 C 6.644531 2.675781 6.625 2.289062 6.625 2.0625 C 6.5625 0.144531 6.632812 -1.753906 6.84375 -3.640625 C 7.050781 -5.535156 7.363281 -7.425781 7.78125 -9.3125 C 7.9375 -9.945312 8.09375 -10.582031 8.25 -11.21875 C 8.414062 -11.863281 8.578125 -12.507812 8.734375 -13.15625 C 8.796875 -13.3125 8.84375 -13.476562 8.875 -13.65625 C 8.90625 -13.832031 8.890625 -14.015625 8.828125 -14.203125 L 8.828125 -14.15625 C 8.546875 -14 8.335938 -13.820312 8.203125 -13.625 C 8.140625 -13.5 8.0625 -13.378906 7.96875 -13.265625 C 7.875 -13.160156 7.796875 -13.039062 7.734375 -12.90625 C 6.804688 -11.5625 5.835938 -10.257812 4.828125 -9 C 3.816406 -7.738281 2.734375 -6.53125 1.578125 -5.375 C 1.421875 -5.25 1.269531 -5.132812 1.125 -5.03125 C 0.976562 -4.9375 0.8125 -4.859375 0.625 -4.796875 C 0.332031 -4.796875 0.0820312 -4.851562 -0.125 -4.96875 C -0.332031 -5.082031 -0.453125 -5.296875 -0.484375 -5.609375 C -0.484375 -6.191406 -0.300781 -6.929688 0.0625 -7.828125 C 0.4375 -8.722656 0.863281 -9.601562 1.34375 -10.46875 C 1.820312 -11.332031 2.207031 -12.003906 2.5 -12.484375 C 2.75 -12.835938 3.144531 -13.253906 3.6875 -13.734375 C 4.238281 -14.210938 4.722656 -14.453125 5.140625 -14.453125 C 5.585938 -14.453125 5.988281 -14.082031 6.34375 -13.34375 C 6.5 -13.40625 6.625 -13.5 6.71875 -13.625 C 6.8125 -13.757812 6.890625 -13.890625 6.953125 -14.015625 L 8.828125 -16.75 C 9.410156 -17.613281 9.945312 -18.5 10.4375 -19.40625 C 10.9375 -20.320312 11.363281 -21.289062 11.71875 -22.3125 C 12.257812 -24.070312 12.976562 -25.691406 13.875 -27.171875 C 14 -27.421875 14.132812 -27.671875 14.28125 -27.921875 C 14.425781 -28.179688 14.625 -28.394531 14.875 -28.5625 C 15.007812 -28.6875 15.171875 -28.75 15.359375 -28.75 C 15.617188 -28.75 15.785156 -28.6875 15.859375 -28.5625 C 15.941406 -28.4375 16.015625 -28.242188 16.078125 -27.984375 C 16.078125 -27.722656 16.035156 -27.488281 15.953125 -27.28125 C 15.878906 -27.070312 15.796875 -26.859375 15.703125 -26.640625 C 15.410156 -25.835938 15.078125 -25.0625 14.703125 -24.3125 C 14.335938 -23.5625 13.929688 -22.832031 13.484375 -22.125 C 12.878906 -21.195312 12.300781 -20.019531 11.75 -18.59375 C 11.207031 -17.175781 10.703125 -15.664062 10.234375 -14.0625 C 9.773438 -12.457031 9.382812 -10.910156 9.0625 -9.421875 C 8.75 -7.941406 8.515625 -6.65625 8.359375 -5.5625 C 8.160156 -4.28125 8.015625 -3.007812 7.921875 -1.75 C 7.828125 -0.488281 7.8125 0.796875 7.875 2.109375 C 7.90625 2.722656 7.957031 3.332031 8.03125 3.9375 C 8.113281 4.539062 8.238281 5.164062 8.40625 5.8125 C 8.46875 6 8.5 6.09375 8.5 6.09375 C 8.59375 6.601562 8.460938 6.910156 8.109375 7.015625 C 8.078125 7.046875 8 7.0625 7.875 7.0625 Z M 1.4375 -6.859375 C 2.175781 -7.722656 2.890625 -8.570312 3.578125 -9.40625 C 4.265625 -10.238281 4.925781 -11.101562 5.5625 -12 C 5.625 -12.125 5.703125 -12.234375 5.796875 -12.328125 C 5.898438 -12.429688 5.984375 -12.53125 6.046875 -12.625 C 6.171875 -12.8125 6.269531 -13.035156 6.34375 -13.296875 C 6.238281 -13.328125 6.046875 -13.34375 5.765625 -13.34375 C 5.285156 -13.34375 4.867188 -13.207031 4.515625 -12.9375 C 4.160156 -12.664062 3.820312 -12.320312 3.5 -11.90625 C 3.46875 -11.875 3.4375 -11.84375 3.40625 -11.8125 C 3.375 -11.78125 3.34375 -11.726562 3.3125 -11.65625 C 2.894531 -11.019531 2.535156 -10.378906 2.234375 -9.734375 C 1.929688 -9.097656 1.648438 -8.445312 1.390625 -7.78125 C 1.265625 -7.519531 1.28125 -7.210938 1.4375 -6.859375 Z M 1.4375 -6.859375 "/></g></g></g><g fill="#d9d9d9" fill-opacity="1"><g transform="translate(211.399671, 30.128563)"><g><path d="M 2.015625 -2.40625 C 1.441406 -2.40625 0.929688 -2.578125 0.484375 -2.921875 C 0.0351562 -3.273438 -0.253906 -3.773438 -0.390625 -4.421875 C -0.484375 -4.898438 -0.515625 -5.3125 -0.484375 -5.65625 C -0.421875 -6.332031 -0.226562 -7.109375 0.09375 -7.984375 C 0.414062 -8.867188 0.847656 -9.691406 1.390625 -10.453125 C 1.929688 -11.222656 2.507812 -11.722656 3.125 -11.953125 C 3.3125 -12.046875 3.519531 -12.09375 3.75 -12.09375 C 4.03125 -12.0625 4.203125 -11.898438 4.265625 -11.609375 C 4.335938 -11.234375 4.242188 -11.023438 3.984375 -10.984375 C 3.441406 -10.890625 3.023438 -10.664062 2.734375 -10.3125 C 2.441406 -9.96875 2.171875 -9.585938 1.921875 -9.171875 C 1.472656 -8.304688 1.148438 -7.488281 0.953125 -6.71875 C 0.828125 -6.363281 0.765625 -5.898438 0.765625 -5.328125 C 0.765625 -4.398438 1.085938 -3.859375 1.734375 -3.703125 C 2.109375 -3.703125 2.425781 -3.75 2.6875 -3.84375 C 2.945312 -3.9375 3.1875 -4.175781 3.40625 -4.5625 C 3.726562 -5.070312 3.921875 -5.582031 3.984375 -6.09375 C 4.046875 -6.601562 3.898438 -7.132812 3.546875 -7.6875 C 3.359375 -8 3.203125 -8.316406 3.078125 -8.640625 C 3.003906 -8.796875 3.023438 -8.945312 3.140625 -9.09375 C 3.253906 -9.238281 3.390625 -9.328125 3.546875 -9.359375 L 5.046875 -9.359375 C 5.941406 -9.359375 6.835938 -9.503906 7.734375 -9.796875 C 7.953125 -9.859375 8.171875 -9.9375 8.390625 -10.03125 C 8.617188 -10.125 8.847656 -10.203125 9.078125 -10.265625 C 9.296875 -10.335938 9.507812 -10.421875 9.71875 -10.515625 C 9.925781 -10.609375 10.144531 -10.6875 10.375 -10.75 L 11.140625 -10.9375 C 11.390625 -10.9375 11.597656 -10.8125 11.765625 -10.5625 C 11.921875 -10.175781 11.789062 -9.921875 11.375 -9.796875 C 10.925781 -9.628906 10.476562 -9.46875 10.03125 -9.3125 C 9.582031 -9.15625 9.132812 -8.992188 8.6875 -8.828125 C 8.238281 -8.671875 7.78125 -8.535156 7.3125 -8.421875 C 6.851562 -8.304688 6.367188 -8.21875 5.859375 -8.15625 C 5.410156 -8.09375 5.160156 -8.019531 5.109375 -7.9375 C 5.066406 -7.863281 5.078125 -7.617188 5.140625 -7.203125 C 5.328125 -6.273438 5.210938 -5.363281 4.796875 -4.46875 C 4.472656 -3.789062 3.992188 -3.226562 3.359375 -2.78125 C 2.910156 -2.53125 2.460938 -2.40625 2.015625 -2.40625 Z M 2.015625 -2.40625 "/></g></g></g><g fill="#d9d9d9" fill-opacity="1"><g transform="translate(220.805374, 30.128563)"><g><path d="M -0.34375 3.84375 C -0.59375 3.84375 -0.847656 3.757812 -1.109375 3.59375 C -1.492188 3.34375 -1.734375 3.039062 -1.828125 2.6875 C -1.921875 2.332031 -1.9375 1.945312 -1.875 1.53125 C -1.78125 1.082031 -1.539062 0.566406 -1.15625 -0.015625 C -0.769531 -0.609375 -0.335938 -1.175781 0.140625 -1.71875 C 0.617188 -2.269531 1.050781 -2.671875 1.4375 -2.921875 C 1.789062 -3.210938 2.019531 -3.515625 2.125 -3.828125 C 2.238281 -4.148438 2.296875 -4.535156 2.296875 -4.984375 C 2.265625 -5.722656 2.203125 -6.441406 2.109375 -7.140625 C 2.015625 -7.847656 1.890625 -8.570312 1.734375 -9.3125 C 1.660156 -9.632812 1.609375 -9.945312 1.578125 -10.25 C 1.546875 -10.550781 1.515625 -10.863281 1.484375 -11.1875 C 1.421875 -12.269531 1.617188 -13.203125 2.078125 -13.984375 C 2.546875 -14.773438 3.195312 -15.472656 4.03125 -16.078125 C 4.507812 -16.367188 5.003906 -16.515625 5.515625 -16.515625 C 5.773438 -16.515625 5.984375 -16.5 6.140625 -16.46875 C 6.304688 -16.4375 6.484375 -16.320312 6.671875 -16.125 C 6.796875 -16 6.832031 -15.851562 6.78125 -15.6875 C 6.738281 -15.53125 6.640625 -15.421875 6.484375 -15.359375 C 6.453125 -15.328125 6.351562 -15.3125 6.1875 -15.3125 C 5.289062 -15.3125 4.503906 -14.988281 3.828125 -14.34375 C 3.160156 -13.707031 2.796875 -12.941406 2.734375 -12.046875 C 2.703125 -11.921875 2.6875 -11.789062 2.6875 -11.65625 C 2.6875 -11.53125 2.6875 -11.40625 2.6875 -11.28125 C 2.6875 -11.15625 2.691406 -11.023438 2.703125 -10.890625 C 2.722656 -10.765625 2.75 -10.640625 2.78125 -10.515625 C 2.945312 -9.648438 3.097656 -8.789062 3.234375 -7.9375 C 3.378906 -7.09375 3.484375 -6.238281 3.546875 -5.375 C 3.546875 -5.34375 3.628906 -5.195312 3.796875 -4.9375 C 4.078125 -5.101562 4.316406 -5.25 4.515625 -5.375 L 11.46875 -10.265625 C 11.632812 -10.335938 11.78125 -10.4375 11.90625 -10.5625 C 12.0625 -10.65625 12.207031 -10.703125 12.34375 -10.703125 C 12.46875 -10.703125 12.578125 -10.65625 12.671875 -10.5625 C 12.960938 -10.300781 12.992188 -10.0625 12.765625 -9.84375 C 12.640625 -9.644531 12.382812 -9.40625 12 -9.125 C 11.363281 -8.675781 10.738281 -8.234375 10.125 -7.796875 C 9.519531 -7.367188 8.910156 -6.929688 8.296875 -6.484375 L 4.3125 -3.640625 C 3.769531 -3.265625 3.453125 -2.753906 3.359375 -2.109375 C 3.328125 -1.441406 3.148438 -0.644531 2.828125 0.28125 C 2.515625 1.21875 2.082031 2.046875 1.53125 2.765625 C 0.988281 3.484375 0.363281 3.84375 -0.34375 3.84375 Z M -0.234375 2.5 C -0.109375 2.5 0 2.453125 0.09375 2.359375 C 0.539062 2.003906 0.925781 1.484375 1.25 0.796875 C 1.570312 0.109375 1.75 -0.617188 1.78125 -1.390625 C 0.65625 -0.554688 -0.144531 0.445312 -0.625 1.625 C -0.65625 1.757812 -0.65625 1.875 -0.625 1.96875 C -0.625 2.125 -0.578125 2.253906 -0.484375 2.359375 C -0.421875 2.453125 -0.335938 2.5 -0.234375 2.5 Z M -0.234375 2.5 "/></g></g></g></svg>